<svg width="800" height="620" viewBox="185 95 430 430" fill="none" xmlns="http://www.w3.org/2000/svg">
<path d="M351 222C351 166.771 395.772 122 451 122C506.228 122 551 166.771 551 222C551 277.228 506.228 322 451 322H351V222Z" fill="#075ABA"/>
<path d="M451 267C475.853 267 496 246.853 496 222C496 197.147 475.853 177 451 177C426.147 177 406 197.147 406 222C406 246.853 426.147 267 451 267Z" fill="white"/>
<path d="M406 342H351V397H406V342Z" fill="#F2994A"/>
<path d="M210.939 427H234.239C242.505 427 248.772 428.9 253.039 432.7C257.305 436.433 259.439 441.967 259.439 449.3C259.439 457.033 257.239 462.933 252.839 467C248.505 471 242.139 473 233.739 473H225.339V497H210.939V427ZM234.939 461.6C238.405 461.6 241.005 460.6 242.739 458.6C244.539 456.533 245.439 453.567 245.439 449.7C245.439 446.033 244.472 443.267 242.539 441.4C240.672 439.467 237.872 438.5 234.139 438.5H225.339V461.6H234.939ZM280.196 498C276.929 498 273.996 497.333 271.396 496C268.796 494.6 266.762 492.7 265.296 490.3C263.829 487.833 263.096 485.1 263.096 482.1C263.096 476.967 265.129 473.033 269.196 470.3C273.262 467.567 279.062 466.2 286.596 466.2H294.396V464.1C294.396 461.433 293.596 459.4 291.996 458C290.462 456.533 288.262 455.8 285.396 455.8C282.396 455.8 279.529 456.333 276.796 457.4C274.062 458.467 271.829 459.933 270.096 461.8L264.496 454.4C267.229 451.8 270.462 449.767 274.196 448.3C277.929 446.767 281.796 446 285.796 446C292.462 446 297.696 447.567 301.496 450.7C305.296 453.833 307.196 458.167 307.196 463.7V486.5C307.196 488.033 307.296 489.833 307.496 491.9C307.762 493.967 308.062 495.667 308.396 497H297.096C296.696 496.133 296.396 495.3 296.196 494.5C295.996 493.633 295.829 492.467 295.696 491H295.496C291.696 495.667 286.596 498 280.196 498ZM283.296 488.4C286.496 488.4 289.129 487.6 291.196 486C293.329 484.333 294.396 482.233 294.396 479.7V474.7H286.196C282.796 474.7 280.162 475.333 278.296 476.6C276.496 477.867 275.596 479.7 275.596 482.1C275.596 484.1 276.262 485.667 277.596 486.8C278.996 487.867 280.896 488.4 283.296 488.4ZM318.425 459.2C318.425 453.533 318.325 449.467 318.125 447H330.225C330.492 449.6 330.625 452.533 330.625 455.8V456.8H331.025C332.292 453.533 334.525 450.933 337.725 449C340.925 447 344.592 446 348.725 446C349.525 446 350.525 446.1 351.725 446.3V456.4C351.459 456.267 350.659 456.2 349.325 456.2C346.125 456.2 343.125 457.067 340.325 458.8C337.592 460.533 335.392 462.867 333.725 465.8C332.059 468.667 331.225 471.767 331.225 475.1V497H318.425V459.2ZM391.371 497L376.571 473.7L370.571 479.6V497H357.771V422.8H370.571V464.3L388.171 447H403.871L385.371 465.1L405.771 497H391.371Z" fill="#075ABA"/>
<path d="M412.892 427H459.392V438.5H427.292V454.5H455.892V466H427.292V485.5H459.392V497H412.892V427ZM465.321 490.2L492.121 456.6H466.721V447H507.621V453.2L481.221 487.4H508.721V497H465.321V490.2ZM524.379 441.2C521.913 441.2 519.946 440.533 518.479 439.2C517.013 437.8 516.279 435.967 516.279 433.7C516.279 431.433 517.013 429.633 518.479 428.3C519.946 426.9 521.913 426.2 524.379 426.2C526.846 426.2 528.813 426.9 530.279 428.3C531.813 429.633 532.579 431.433 532.579 433.7C532.579 435.967 531.846 437.8 530.379 439.2C528.913 440.533 526.913 441.2 524.379 441.2ZM518.079 447H530.779V497H518.079V447ZM542.923 422.8H555.723V452.9C557.256 450.767 559.39 449.1 562.123 447.9C564.923 446.633 567.956 446 571.223 446C576.89 446 581.423 447.867 584.823 451.6C588.29 455.333 590.023 460.467 590.023 467V497H577.223V467.9C577.223 464.033 576.39 461 574.723 458.8C573.056 456.6 570.756 455.5 567.823 455.5C564.156 455.5 561.223 456.8 559.023 459.4C556.823 461.933 555.723 465.4 555.723 469.8V497H542.923V422.8Z" fill="#F2994A"/>
</svg>
